<!--?xml version="1.0" encoding="UTF-8"?-->
<svg xmlns="http://www.w3.org/2000/svg" viewBox="0 0 716.17 494.4" style="">
  <g id="a" data-name="Layer 1">
    <path d="M8.5,109.89C190.28,3.66,252.61-2.78,271.5,17.89c48.54,53.13-141.3,338.44-191,319-21.98-8.6-32.07-61.97-14-79,24.92-23.48,89.22,43,155,23,40.44-12.29,65.08-52.14,80.23-87.57" style="fill: none; stroke: #fafaf9; stroke-linecap: round; stroke-miterlimit: 30; stroke-width: 17px;" class="YsZjUKWZ_0"></path>
  </g>
  <g id="b" data-name="Layer 2">
    <path d="M269.5,199.89c28.25-94.16,47.2-127.68,60-126,31.35,4.11,20.67,218.88,30,219,4.88.06,21.7-58.46-6-95-28.47-37.57-90.33-33.85-90-38,.21-2.66,2.71-28.33,113-24" style="fill: none; stroke: #fafaf9; stroke-linecap: round; stroke-miterlimit: 30; stroke-width: 17px;" class="YsZjUKWZ_1"></path>
  </g>
  <g id="c" data-name="Layer 3">
    <path d="M409.5,89.89c-1.67,35.67-3.33,71.33-5,107" style="fill: none; stroke: #fafaf9; stroke-linecap: round; stroke-miterlimit: 30; stroke-width: 17px;" class="YsZjUKWZ_2"></path>
  </g>
  <g id="d" data-name="Layer 4">
    <path d="M449.5,81.89c3.14,14.67,6.12,36.91,2,63-4.93,31.24-16.23,43.96-10,51,11.76,13.3,75.42-5.69,80-39,2.8-20.35-17.43-38.63-30-50-22.52-20.36-47.21-27.34-60-30" style="fill: none; stroke: #fafaf9; stroke-linecap: round; stroke-miterlimit: 30; stroke-width: 17px;" class="YsZjUKWZ_3"></path>
  </g>
  <g id="e" data-name="Layer 5">
    <path d="M614.5,256.64c-20.54-154.5-31.11-188.4-37-188-6.89.47-1.69,47.49-25,111-23.34,63.6-49.33,105.4-50,97-1.03-12.96,117.72-123.89,128.48-111.38,1.47,1.71,2.83,4.1,2.01,5.05-3.93,4.55-52.29-30.23-112.26-76.24" style="fill: none; stroke: #fafaf9; stroke-linecap: round; stroke-miterlimit: 30; stroke-width: 17px;" class="YsZjUKWZ_4"></path>
  </g>
  <g id="f" data-name="Layer 9">
    <path d="M625.5,145.89c-3.49-33.8-4.81-60.99,0-62.01,12.31-2.6,49.22,169.54,69,167.01,11.82-1.51,17.03-65.33,10-234" style="fill: none; stroke: #fafaf9; stroke-linecap: round; stroke-miterlimit: 30; stroke-width: 17px;" class="YsZjUKWZ_5"></path>
  </g>
  <g id="g" data-name="Layer 7">
    <path d="M336.41,259.92c-20.43,10.83-37.25,23.48-36,36,2.93,29.3,101.88,27.88,106,55,5.2,34.24-142.85,100.45-160,77-9.51-13.01,16.94-59.47,50-65,31.69-5.3,72.16,26.58,88,83" style="fill: none; stroke: #fafaf9; stroke-linecap: round; stroke-miterlimit: 30; stroke-width: 17px;" class="YsZjUKWZ_6"></path>
  </g>
  <g id="h" data-name="Layer 8">
    <path d="M420.5,426.89c26.46-84.82,43.07-116.69,53-115,22.14,3.76,2.89,172.89,14,174,7.28.73,32.18-70.13,5-97-21.22-20.98-68.84-11.73-69-9-.2,3.51,77.41,18.82,91.23-5.57,1.3-2.29,1.79-4.5,2-6" style="fill: none; stroke: #fafaf9; stroke-linecap: round; stroke-miterlimit: 30; stroke-width: 17px;" class="YsZjUKWZ_7"></path>
  </g>
  <g id="i" data-name="Layer 6">
    <path d="M520.26,349.18c-11.6-60.54,8.9-45.76,11.77-46.43,6.15-1.44,46.43,174.33,60,172,7.62-1.31,6.3-58.66-9-201" style="fill: none; stroke: #fafaf9; stroke-linecap: round; stroke-miterlimit: 30; stroke-width: 17px;" class="YsZjUKWZ_8"></path>
  </g>
  <g id="j" data-name="Layer 10">
    <path d="M629.23,324.66c2.67,45.33,5.33,90.67,8,136" style="fill: none; stroke: #fafaf9; stroke-linecap: round; stroke-miterlimit: 30; stroke-width: 17px;" class="YsZjUKWZ_9"></path>
  </g>
<style data-made-with="vivus-instant">.YsZjUKWZ_0{stroke-dasharray:1059 1061;stroke-dashoffset:1060;animation:YsZjUKWZ_draw 2440ms ease-in 0ms forwards;}.YsZjUKWZ_1{stroke-dasharray:691 693;stroke-dashoffset:692;animation:YsZjUKWZ_draw 2440ms ease-in 62ms forwards;}.YsZjUKWZ_2{stroke-dasharray:108 110;stroke-dashoffset:109;animation:YsZjUKWZ_draw 2440ms ease-in 124ms forwards;}.YsZjUKWZ_3{stroke-dasharray:345 347;stroke-dashoffset:346;animation:YsZjUKWZ_draw 2440ms ease-in 186ms forwards;}.YsZjUKWZ_4{stroke-dasharray:736 738;stroke-dashoffset:737;animation:YsZjUKWZ_draw 2440ms ease-in 248ms forwards;}.YsZjUKWZ_5{stroke-dasharray:484 486;stroke-dashoffset:485;animation:YsZjUKWZ_draw 2440ms ease-in 311ms forwards;}.YsZjUKWZ_6{stroke-dasharray:590 592;stroke-dashoffset:591;animation:YsZjUKWZ_draw 2440ms ease-in 373ms forwards;}.YsZjUKWZ_7{stroke-dasharray:587 589;stroke-dashoffset:588;animation:YsZjUKWZ_draw 2440ms ease-in 435ms forwards;}.YsZjUKWZ_8{stroke-dasharray:446 448;stroke-dashoffset:447;animation:YsZjUKWZ_draw 2440ms ease-in 497ms forwards;}.YsZjUKWZ_9{stroke-dasharray:137 139;stroke-dashoffset:138;animation:YsZjUKWZ_draw 2440ms ease-in 560ms forwards;}@keyframes YsZjUKWZ_draw{100%{stroke-dashoffset:0;}}@keyframes YsZjUKWZ_fade{0%{stroke-opacity:1;}94.44444444444444%{stroke-opacity:1;}100%{stroke-opacity:0;}}</style></svg>
